<?xml version="1.0" standalone="no"?>
<!DOCTYPE svg PUBLIC "-//W3C//DTD SVG 20010904//EN"
 "http://www.w3.org/TR/2001/REC-SVG-20010904/DTD/svg10.dtd">
<svg version="1.0" xmlns="http://www.w3.org/2000/svg"
 width="163.000000pt" height="158.000000pt" viewBox="0 0 163.000000 158.000000"
 preserveAspectRatio="xMidYMid meet">

<g transform="translate(0.000000,158.000000) scale(0.100000,-0.100000)"
fill="#000000" stroke="none">
<path d="M750 1241 c-210 -31 -360 -246 -348 -496 6 -113 33 -186 94 -254 65
-72 136 -104 239 -105 86 -1 124 10 191 55 93 63 167 254 118 303 -32 33 -79
11 -89 -42 -21 -102 -62 -163 -129 -193 -107 -48 -230 -2 -286 107 -32 64 -40
202 -16 285 32 109 119 206 209 230 61 17 183 6 240 -21 59 -28 110 -86 139
-159 20 -51 23 -79 28 -299 5 -226 6 -245 24 -258 25 -18 36 -18 64 2 22 15
22 19 22 232 0 237 -10 302 -56 395 -52 102 -122 166 -219 200 -50 18 -166 27
-225 18z"/>
<path d="M1377 1194 c-4 -4 -7 -34 -7 -66 0 -53 -2 -58 -21 -55 -37 4 -32 -20
14 -67 50 -53 76 -58 113 -21 22 22 25 32 22 82 l-3 56 -42 14 c-29 10 -43 21
-45 35 -3 22 -19 33 -31 22z m24 -56 c1 -29 4 -41 6 -25 2 15 9 27 14 27 5 0
10 -12 10 -27 2 -24 2 -25 6 -5 2 12 9 22 14 22 5 0 10 -10 10 -22 1 -17 2
-19 6 -5 10 36 23 15 23 -38 0 -42 -5 -60 -20 -75 -34 -34 -70 -24 -114 35
-31 40 -29 53 3 35 20 -10 21 -9 21 60 0 81 19 97 21 18z"/>
</g>
</svg>
