<svg width="98" height="95.6" version="1.1" viewBox="0 0 98 95.6" xml:space="preserve" xmlns="http://www.w3.org/2000/svg">
<style type="text/css">.st0{fill:#230607;}.st1{fill:#FC6D38;}</style>
<g transform="translate(-1,-2.2)">
<path class="st0" d="m18.4 2.2h63.3c9.5 0 17.3 7.8 17.3 17.4v60.8c0 9.6-7.8 17.4-17.4 17.4h-63.2c-9.6 0-17.4-7.8-17.4-17.4v-60.8c0-9.6 7.8-17.4 17.4-17.4z"/>
<path class="st1" d="m19.3 53.4v16c0 0.4-0.2 0.6-0.5 0.6h-8c-0.1 0-0.3 0-0.4-0.2-0.1-0.1-0.1-0.3-0.1-0.4v-41.9c0-0.2 0.1-0.4 0.3-0.5h0.1 25.9c0.2 0 0.3 0 0.5 0.1 0.1 0.1 0.2 0.3 0.2 0.4l0.7 7.1c0 0.1 0 0.2-0.1 0.3s-0.3 0.2-0.4 0.2h-18.2v9.9h16.3c0.4 0 0.6 0.2 0.6 0.5v7.2c0 0.3-0.1 0.5-0.4 0.5h-0.1z"/>
<path class="st1" d="m50.5 69.9h-8c-0.3 0-0.6-0.2-0.6-0.4v-0.1-24.9-2.5c0-0.8-0.1-1.6-0.1-2.3s-0.1-1.3-0.1-1.8c0-0.3 0.1-0.5 0.5-0.5h6.9c0.3 0 0.6 0.2 0.8 0.5 0.1 0.3 0.2 0.6 0.2 0.9 0.1 0.4 0.1 0.9 0.2 1.3 1.4-1.1 2.9-2 4.6-2.6 1.5-0.5 3.1-0.8 4.7-0.8 1.7 0 3.4 0.3 5 1.1 1.4 0.7 2.6 1.7 3.4 3 1.4-1.2 3-2.1 4.7-2.9 1.8-0.8 3.8-1.2 5.8-1.2 1.4 0 2.9 0.2 4.2 0.7 1.3 0.4 2.5 1.2 3.6 2.1 1.1 1.1 2 2.5 2.5 4 0.7 2 1 4.1 0.9 6.2v19.6c0 0.3-0.2 0.5-0.4 0.6h-0.1-7.8c-0.3 0-0.6-0.2-0.7-0.5v-0.2-18.7c0-1-0.1-2-0.4-3-0.3-0.9-0.8-1.6-1.5-2.2-0.9-0.6-1.9-0.9-3-0.8-1.1 0-2.1 0.2-3.1 0.6-0.9 0.4-1.8 0.9-2.5 1.6 0.1 0.5 0.2 1 0.2 1.6v2 18.9c0 0.4-0.2 0.7-0.5 0.7h-7.9c-0.4 0-0.7-0.2-0.7-0.6v-19c0.1-1.6-0.3-3.1-1.3-4.4-1-0.9-2.3-1.4-3.6-1.4-1 0-1.9 0.2-2.8 0.5s-1.8 0.8-2.6 1.3v23c0 0.3-0.1 0.5-0.4 0.5l-0.1 0.1z"/>
</g>
</svg>
