<svg enable-background="new 0 0 1024 1024" height="1024" image-rendering="optimizeSpeed" viewBox="0 0 1024 1024" width="1024" xmlns="http://www.w3.org/2000/svg"><path d="m937.3 288c-7.15-11.6-14.85-22.95-23.35-34.3-14.2-19.05-30.35-37.65-48.2-55.5-4.75-4.75-9.55-9.4-14.75-14.2-88.95-82.6-195.45-124.05-319.05-124.05-130.35 0-241.6 46.1-333.75 138.25s-138.25 203.4-138.25 333.75 46.1 241.65 138.25 333.8 203.4 138.2 333.75 138.2 241.65-46.05 333.8-138.2c50.75-50.8 87.55-107.4 110.35-169.75 18.55-50.85 27.85-105.5 27.85-164.05 0-44.9-5.45-87.55-16.4-127.95-1.25-4.55-2.55-9.1-3.9-13.6-4.1-13.3-8.8-26.35-14.05-39.15q-8.6-20.85-19.4-40.85c-4.05-7.55-8.35-15.05-12.9-22.4z" fill-opacity=".098039"/><path d="m851.45 184c-1.75-1.8-3.7-3.8-5.65-5.75-72.6-72.6-157.15-116.65-253.65-132.05-16.25-2.6-32.8-4.4-50.05-5.35-9.7-.55-19.85-.85-30.1-.85-9.35 0-18.6.25-27.9.75-118.35 6.1-220.3 51.95-305.85 137.5q-138.25 138.25-138.25 333.75c0 130.35 46.1 241.65 138.25 333.8 56.7 56.65 120.55 95.9 191.1 117.55 36.75 11.25 74.8 17.85 114.75 19.95h.4c8.5.45 16.6.7 24.5.7h3c10.3 0 20.5-.3 30.1-.8 2.5-.15 4.75-.3 6.95-.45 20.2-1.45 39.9-4.05 58.7-7.7 7.95-1.55 15.8-3.3 23.4-5.15 80.8-20.3 152.15-61.6 214.65-124.1 48.6-48.6 84.4-102.5 107.35-161.8 18.45-47.65 28.65-98.8 30.55-153.5.2-6.05.3-12.25.3-18.5 0-.65 0-1.35 0-2 0-.35 0-.65 0-1-.2-40.65-4.95-79.5-14.3-117-1.1-4.35-2.35-9-3.65-13.6-1-3.4-2-6.85-3.15-10.5-1.6-5.15-3.4-10.5-5.3-15.85-6.45-18.25-14.15-36.05-23.15-53.65-3.8-7.4-7.95-14.95-12.3-22.4-2.6-4.45-5.3-8.85-8.2-13.35-17.35-27.35-38.2-53.6-62.5-78.65z" fill="#81a0d5"/><path d="m984 510c0-.35 0-.65 0-1-.2-37.5-4.25-73.4-12.25-108.55l-.025-.025-176.725-176.725-499.625 98.85-75.475 124.8 223.65 223.65h-223.65l312.625 312.625q4.811-.168 9.575-.425c2.5-.15 4.75-.3 6.95-.45 20.2-1.45 39.9-4.05 58.7-7.7 7.95-1.55 15.8-3.3 23.4-5.15 80.8-20.3 152.15-61.6 214.65-124.1 48.6-48.6 84.4-102.5 107.35-161.8 18.45-47.65 28.65-98.8 30.55-153.5.2-6.05.3-12.25.3-18.5 0-.65 0-1.35 0-2z" fill-opacity=".2"/><path d="m671 336.6 124-112.9h-432l-143.1 112.9h143.1zm-9 223.65h143.1l-143.1-112.9h-299-143.1-.9l143.85 112.9zm143.1 110.75h-143.1-442.1l141.85 112.9h300.25z" fill="#fff"/><path d="m805.1 560.25h-143.1v110.75h143.1zm-585.2-223.65v110.75h143.1v-110.75z" fill="#d8e6f5"/></svg>