<?xml version="1.0" encoding="utf-8"?>
<!-- Generator: Adobe Illustrator 25.0.1, SVG Export Plug-In . SVG Version: 6.00 Build 0)  -->
<svg version="1.0" id="Layer_1" xmlns="http://www.w3.org/2000/svg" xmlns:xlink="http://www.w3.org/1999/xlink" x="0px" y="0px"
	 viewBox="0 0 566 434" style="enable-background:new 0 0 566 434;" xml:space="preserve">
<style type="text/css">
	.st0{fill:url(#background_1_);}
	.st1{fill:#FFFFFF;}
	.st2{opacity:0.74;fill:#FFFFFF;enable-background:new    ;}
	.st3{fill:none;}
	.st4{fill:#3C7CB5;}
</style>
<g id="_96">
	
		<linearGradient id="background_1_" gradientUnits="userSpaceOnUse" x1="277.3588" y1="477.54" x2="277.3588" y2="662.46" gradientTransform="matrix(1 0 0 1 0 -398)">
		<stop  offset="0" style="stop-color:#58A0D2"/>
		<stop  offset="0.55" style="stop-color:#58A0D2"/>
		<stop  offset="1" style="stop-color:#3572B2"/>
	</linearGradient>
	<path id="background" class="st0" d="M202.2,79.5h150.2c9.6,0,17.3,7.8,17.3,17.3v150.2c0,9.6-7.8,17.3-17.3,17.3H202.2
		c-9.6,0-17.3-7.8-17.3-17.3V96.9C184.9,87.3,192.7,79.5,202.2,79.5z"/>
	<g id="shape">
		<path class="st1" d="M246.4,103.5c0.5-0.6,1.3-0.9,2.1-0.8h85.8c0.8,0,1.5,0.3,2.1,0.9c0.5,0.5,0.8,1.2,0.8,1.9
			c0,0.7-0.3,1.4-0.8,1.9l-25.4,23.1c-0.5,0.5-1.2,0.8-1.9,0.9h-89.4L246.4,103.5"/>
		<path class="st1" d="M248.2,214.4c-0.7,0-1.4,0.3-1.9,0.8l-25.8,23.1c-0.5,0.5-0.8,1.2-0.8,1.9c0,0.7,0.3,1.4,0.8,1.9
			c0.5,0.6,1.3,0.9,2.1,0.9h85.7c0.7,0,1.4-0.3,1.9-0.9l27-27.8L248.2,214.4z"/>
		<path class="st1" d="M219.6,158.5h88.8c0.7,0,1.4,0.3,1.9,0.8l26.8,28.1h-88.8c-0.7,0-1.4-0.3-1.9-0.8L219.6,158.5z"/>
		<rect x="308.2" y="187.4" class="st2" width="28.9" height="27"/>
		<rect x="219.6" y="131.6" class="st2" width="28.9" height="27"/>
	</g>
</g>
<rect x="177.4" y="87" class="st3" width="200" height="200"/>
<g id="Page-1">
	<g id="Snagit">
		<g id="Page-1-2">
			<g id="Group-3">
				<g>
					<path id="Fill-1" class="st4" d="M188.9,345.2c3.7,3.7,8.8,5.8,14,5.8c6.5,0,11.7-4,11.7-10.3c0-14.9-26.8-10.8-26.8-27.2
						c0-7,6.2-13.5,15.7-13.5c4.9-0.1,9.7,1.6,13.3,4.9l-1.8,2.8c-3.1-2.8-7.2-4.4-11.4-4.5c-7.8,0-12.4,5.2-12.4,10.3
						c0,13.8,26.8,9.6,26.8,27.1c0,7.6-5.8,13.6-15.2,13.6c-6,0.1-11.8-2.3-16-6.5L188.9,345.2z"/>
				</g>
			</g>
			<path id="Fill-4" class="st4" d="M223.1,315.8h3.1v6.6c0,1-0.1,2.1-0.3,3.1h0.2c2.7-6.4,9-10.5,15.9-10.5
				c9.7,0,12.3,5.8,12.3,14.6v23.7h-3.1v-22.6c0-6.5-0.8-12.6-9.2-12.6c-7.1,0.1-13.3,5-15.1,11.9c-0.4,1.7-0.6,3.4-0.6,5.1v18.2
				h-3.1V315.8z"/>
			<path id="Fill-6" class="st4" d="M271.1,351.2c8.2,0,12.8-8.5,12.8-15.9v-2h-2.4c-6.4,0-20,0-20,9.7
				C261.5,347.1,264.8,351.2,271.1,351.2 M281.5,330.5h2.5v-1.3c0-8.3-4.3-11.1-10.3-11.1c-3.9,0-7.6,1.3-10.7,3.6l-1.8-2.5
				c0,0,4.5-4.1,12.6-4.1c8.6,0,13.2,4.8,13.2,14.1v24.2h-3.1v-4.9c0-1.1,0.1-2.3,0.3-3.4h-0.1c0.1,0-3.4,9.2-13.1,9.2
				c-6.1,0-12.7-3.4-12.7-10.9C258.3,330.6,274.8,330.4,281.5,330.5"/>
			<g id="Group-10">
				<g>
					<path id="Fill-8" class="st4" d="M320.8,333.9c0-12-5.7-15.9-13-15.9c-8,0-12.8,5.8-12.8,15.9s5.5,16.2,13.6,16.2
						C315.1,350.2,320.8,346.1,320.8,333.9 M306.5,365.9c8,0,14.2-3.8,14.2-12.9v-4.3c0-1,0.1-2.1,0.3-3.1h-0.2
						c-2.2,4.6-6.4,7.6-12.6,7.6c-9.7,0-16.6-7.6-16.6-19.3c0-11.7,6.4-19,16.1-19c10.6,0,13,7.3,13,7.3h0.1
						c-0.2-0.5-0.2-0.9-0.2-1.4v-5h3.2V353c0,11.4-8.2,15.9-17.1,15.9c-4.1,0-8.1-1-11.8-2.9l1.5-2.8c3.1,1.6,6.5,2.5,10,2.6"/>
				</g>
			</g>
			<g>
				<path id="Fill-11" class="st4" d="M331.3,353.2h3.1v-37.4h-3.1V353.2z M331,306.3h3.8v-5.5H331L331,306.3z"/>
			</g>
			<g>
				<path id="Fill-13" class="st4" d="M343.1,318.9h-5v-2.8h5v-10.6h3.1v10.6h9.8v2.8h-9.8v20.6c0,9.9,5.9,11.1,8.9,11.1
					c0.6,0,1.2,0,1.7-0.1v2.9c-0.6,0.1-1.2,0.2-1.9,0.2c-3.9,0-11.9-1.4-11.9-13.8V318.9z"/>
			</g>
			<g>
				<path id="Fill-14" class="st4" d="M363.5,306.8c0.4,0,0.8-0.3,0.9-0.7c0,0,0-0.1,0-0.1c0-0.4-0.3-0.8-0.7-0.9c0,0-0.1,0-0.1,0
					h-0.9v1.7L363.5,306.8z M361.9,304.5h1.7c0.7-0.1,1.4,0.5,1.4,1.3c0,0.1,0,0.1,0,0.2c0,0.6-0.3,1.1-0.9,1.3l0,0
					c0.1,0.1,0.1,0.2,0.2,0.3l0.9,1.8h-0.8l-1-1.9h-0.9v1.9h-0.7L361.9,304.5z M363.4,310.7c2.1,0.1,3.9-1.5,4-3.6
					c0.1-2.1-1.5-3.9-3.6-4c-2.1-0.1-3.9,1.5-4,3.6c0,0.1,0,0.1,0,0.2C359.7,308.9,361.3,310.6,363.4,310.7
					C363.3,310.7,363.3,310.7,363.4,310.7z M363.4,302.5c2.5-0.1,4.5,1.9,4.6,4.3c0.1,2.5-1.9,4.5-4.3,4.6c-2.5,0.1-4.5-1.9-4.6-4.3
					c0,0,0-0.1,0-0.1C359,304.5,360.9,302.5,363.4,302.5z"/>
			</g>
		</g>
	</g>
</g>
<rect x="180.4" y="189" class="st3" width="194" height="81"/>
</svg>
